<svg width="25" height="24" viewBox="0 0 25 24" fill="none" xmlns="http://www.w3.org/2000/svg">
<path d="M8.9543 4.15722C9.67526 2.04726 12.5905 1.98336 13.4452 3.96551L13.5176 4.15842L14.4905 7.00385C14.7135 7.65641 15.0738 8.25356 15.5472 8.75502C16.0205 9.25648 16.5959 9.65059 17.2345 9.91077L17.4961 10.0084L20.3414 10.9802C22.4513 11.7012 22.5152 14.6166 20.5343 15.4714L20.3414 15.5437L17.4961 16.5167C16.8434 16.7396 16.246 17.0998 15.7444 17.5732C15.2427 18.0466 14.8485 18.6221 14.5882 19.2609L14.4905 19.5213L13.5188 22.3679C12.7978 24.4779 9.88263 24.5418 9.02904 22.5609L8.9543 22.3679L7.98256 19.5225C7.75974 18.8697 7.39949 18.2724 6.92612 17.7707C6.45276 17.269 5.87729 16.8747 5.23856 16.6144L4.97815 16.5167L2.13287 15.545C0.0218224 14.8239 -0.0420755 11.9086 1.93997 11.055L2.13287 10.9802L4.97815 10.0084C5.63067 9.78544 6.22779 9.42511 6.72922 8.95172C7.23066 8.47834 7.62475 7.90292 7.88491 7.26428L7.98256 7.00385L8.9543 4.15722ZM20.8815 2.17853e-07C21.1071 -2.84509e-07 21.3281 0.0632725 21.5195 0.182628C21.7109 0.301983 21.865 0.472633 21.9642 0.675186L22.0221 0.816252L22.444 2.05329L23.6822 2.47528C23.9082 2.55208 24.1064 2.69425 24.2515 2.88379C24.3967 3.07332 24.4823 3.30168 24.4975 3.53993C24.5128 3.77818 24.4569 4.01559 24.3371 4.22207C24.2173 4.42855 24.0389 4.59481 23.8245 4.69978L23.6822 4.75765L22.4452 5.17964L22.0233 6.41788C21.9463 6.64386 21.8041 6.84192 21.6145 6.98696C21.4249 7.132 21.1965 7.21749 20.9583 7.23259C20.72 7.2477 20.4827 7.19175 20.2763 7.07182C20.0699 6.9519 19.9037 6.7734 19.7989 6.55895L19.741 6.41788L19.319 5.18085L18.0809 4.75886C17.8548 4.68206 17.6567 4.53988 17.5115 4.35035C17.3664 4.16082 17.2808 3.93245 17.2655 3.69421C17.2503 3.45596 17.3061 3.21855 17.426 3.01207C17.5458 2.80559 17.7242 2.63933 17.9386 2.53436L18.0809 2.47649L19.3178 2.05449L19.7398 0.816252C19.8211 0.578038 19.9749 0.371242 20.1797 0.22486C20.3844 0.0784771 20.6298 -0.00015105 20.8815 2.17853e-07Z" fill="#AEAEAE"/>
</svg>
