<svg width="305" height="283" viewBox="0 0 305 283" fill="none" xmlns="http://www.w3.org/2000/svg">
<path d="M264.65 253.981C219.687 287.59 141.13 294.421 93.5882 261.634C70.5565 242.593 71.0793 213.528 68.794 187.907C64.3403 169.85 59.2417 152.024 44.1736 138.307C9.22848 112.851 -15.1006 87.6205 10.8757 47.7125C64.8426 -17.0257 197.603 -11.6852 258.609 43.1647C311.532 98.7183 326.435 199.518 264.65 253.981Z" fill="#E7E9EB"/>
<path d="M99.8798 89.8521C99.7728 89.8521 99.6743 89.7946 99.6208 89.7028L96.7987 84.8173C96.7451 84.7248 96.7451 84.6105 96.7987 84.5179L99.6208 79.6331C99.6736 79.5406 99.7728 79.4838 99.8798 79.4838C99.9869 79.4838 100.085 79.5406 100.139 79.6325L102.968 84.5173C103.021 84.6104 103.021 84.7248 102.968 84.8173L100.139 89.7028C100.085 89.7953 99.9862 89.8521 99.8798 89.8521ZM97.4027 84.6673L99.8805 88.9553L102.363 84.6673L99.8805 80.38L97.4027 84.6673Z" fill="#25292B"/>
<path d="M92.0312 84C91.0914 84 90.3267 83.2353 90.3267 82.2955C90.3267 81.3557 91.0914 80.5917 92.0312 80.5917C92.971 80.5917 93.735 81.3557 93.735 82.2955C93.735 83.2353 92.971 84 92.0312 84ZM92.0312 81.1898C91.4212 81.1898 90.9248 81.6861 90.9248 82.2955C90.9248 82.9055 91.4212 83.4019 92.0312 83.4019C92.6406 83.4019 93.1369 82.9055 93.1369 82.2955C93.1369 81.6861 92.6406 81.1898 92.0312 81.1898Z" fill="#25292B"/>
<path d="M97.057 77.7308C96.2362 77.7308 95.568 77.0626 95.568 76.2417C95.568 75.4215 96.2362 74.7534 97.057 74.7534C97.8779 74.7534 98.5461 75.4215 98.5461 76.2417C98.5461 77.0632 97.8786 77.7308 97.057 77.7308ZM97.057 75.3521C96.566 75.3521 96.1668 75.7513 96.1668 76.2424C96.1668 76.7334 96.5666 77.1326 97.057 77.1326C97.5481 77.1326 97.9473 76.7328 97.9473 76.2424C97.948 75.7513 97.5481 75.3521 97.057 75.3521Z" fill="#25292B"/>
<path d="M90.6265 78.4162C90.0191 78.4162 89.5247 77.9219 89.5247 77.3145C89.5247 76.7071 90.0191 76.2121 90.6265 76.2121C91.2338 76.2121 91.7282 76.7071 91.7282 77.3145C91.7282 77.9219 91.2338 78.4162 90.6265 78.4162ZM90.6265 76.8102C90.3489 76.8102 90.1229 77.0363 90.1229 77.3145C90.1229 77.5921 90.3489 77.8181 90.6265 77.8181C90.9041 77.8181 91.1301 77.5921 91.1301 77.3145C91.1301 77.0363 90.9041 76.8102 90.6265 76.8102Z" fill="#25292B"/>
<path d="M209.066 68.4022C208.959 68.4022 208.861 68.3453 208.807 68.2528L206.648 64.5147C206.595 64.4222 206.595 64.3078 206.648 64.2153L208.807 60.4772C208.86 60.3847 208.959 60.3278 209.066 60.3278C209.173 60.3278 209.272 60.3847 209.325 60.4772L211.49 64.2153C211.543 64.3078 211.543 64.4222 211.49 64.5154L209.325 68.2535C209.272 68.3447 209.173 68.4022 209.066 68.4022ZM207.253 64.3647L209.067 67.5053L210.885 64.3647L209.067 61.224L207.253 64.3647Z" fill="#25292B"/>
<path d="M203.958 62.7905C203.019 62.7905 202.254 62.0258 202.254 61.086C202.254 60.1462 203.019 59.3815 203.958 59.3815C204.898 59.3815 205.662 60.1462 205.662 61.086C205.662 62.0258 204.898 62.7905 203.958 62.7905ZM203.958 59.9803C203.348 59.9803 202.852 60.4767 202.852 61.0867C202.852 61.6967 203.348 62.1924 203.958 62.1924C204.568 62.1924 205.064 61.696 205.064 61.0867C205.064 60.4767 204.568 59.9803 203.958 59.9803Z" fill="#25292B"/>
<path d="M208.984 58.5753C208.163 58.5753 207.495 57.9071 207.495 57.0863C207.495 56.2654 208.163 55.5979 208.984 55.5979C209.805 55.5979 210.473 56.2661 210.473 57.0863C210.473 57.9078 209.806 58.5753 208.984 58.5753ZM208.984 56.196C208.493 56.196 208.094 56.5952 208.094 57.0863C208.094 57.5773 208.494 57.9765 208.984 57.9765C209.475 57.9765 209.874 57.5773 209.874 57.0863C209.875 56.5959 209.475 56.196 208.984 56.196Z" fill="#25292B"/>
<path d="M203.958 56.9994C203.35 56.9994 202.856 56.5051 202.856 55.8977C202.856 55.2903 203.35 54.7953 203.958 54.7953C204.565 54.7953 205.059 55.2896 205.059 55.8977C205.059 56.5057 204.566 56.9994 203.958 56.9994ZM203.958 55.3934C203.68 55.3934 203.454 55.6194 203.454 55.8977C203.454 56.1759 203.68 56.4013 203.958 56.4013C204.235 56.4013 204.461 56.1753 204.461 55.8977C204.461 55.6201 204.235 55.3934 203.958 55.3934Z" fill="#25292B"/>
<path d="M254.147 205.218C254.04 205.218 253.941 205.16 253.888 205.068L251.066 200.183C251.012 200.09 251.012 199.976 251.066 199.884L253.888 194.999C253.941 194.906 254.04 194.849 254.147 194.849C254.253 194.849 254.353 194.906 254.406 194.998L257.235 199.883C257.288 199.976 257.288 200.09 257.235 200.183L254.406 205.068C254.353 205.162 254.254 205.218 254.147 205.218ZM251.671 200.034L254.148 204.322L256.63 200.034L254.148 195.746L251.671 200.034Z" fill="#25292B"/>
<path d="M261.069 207.982C260.129 207.982 259.365 207.218 259.365 206.278C259.365 205.338 260.129 204.573 261.069 204.573C262.009 204.573 262.773 205.338 262.773 206.278C262.773 207.218 262.009 207.982 261.069 207.982ZM261.069 205.171C260.459 205.171 259.963 205.668 259.963 206.278C259.963 206.887 260.459 207.384 261.069 207.384C261.679 207.384 262.175 206.887 262.175 206.278C262.175 205.668 261.679 205.171 261.069 205.171Z" fill="#25292B"/>
<path d="M251.48 193.095C250.659 193.095 249.992 192.427 249.992 191.607C249.992 190.786 250.66 190.118 251.48 190.118C252.301 190.118 252.969 190.786 252.969 191.607C252.969 192.428 252.301 193.095 251.48 193.095ZM251.48 190.717C250.989 190.717 250.59 191.117 250.59 191.607C250.59 192.097 250.989 192.497 251.48 192.497C251.971 192.497 252.37 192.097 252.37 191.607C252.37 191.117 251.971 190.717 251.48 190.717Z" fill="#25292B"/>
<path d="M259.969 198.709C259.362 198.709 258.868 198.214 258.868 197.607C258.868 197 259.362 196.505 259.969 196.505C260.577 196.505 261.072 197 261.072 197.607C261.072 198.214 260.577 198.709 259.969 198.709ZM259.969 197.103C259.692 197.103 259.466 197.329 259.466 197.607C259.466 197.884 259.692 198.11 259.969 198.11C260.247 198.11 260.474 197.884 260.474 197.607C260.474 197.329 260.248 197.103 259.969 197.103Z" fill="#25292B"/>
<path d="M260.305 193.096C260.198 193.096 260.1 193.038 260.046 192.946L258.274 189.878C258.22 189.786 258.22 189.672 258.274 189.579L260.046 186.511C260.1 186.419 260.198 186.362 260.305 186.362C260.412 186.362 260.511 186.419 260.565 186.51L262.341 189.578C262.395 189.672 262.395 189.786 262.341 189.878L260.565 192.946C260.511 193.04 260.412 193.096 260.305 193.096ZM258.879 189.729L260.305 192.199L261.736 189.729L260.305 187.259L258.879 189.729Z" fill="#25292B"/>
<path d="M244.964 204.584C244.357 204.584 243.862 204.089 243.862 203.482C243.862 202.875 244.357 202.38 244.964 202.38C245.571 202.38 246.066 202.875 246.066 203.482C246.066 204.089 245.571 204.584 244.964 204.584ZM244.964 202.978C244.686 202.978 244.46 203.204 244.46 203.482C244.46 203.76 244.686 203.986 244.964 203.986C245.241 203.986 245.468 203.76 245.468 203.482C245.468 203.204 245.241 202.978 244.964 202.978Z" fill="#25292B"/>
<path d="M84.6153 140.136C84.6153 140.136 89.2252 249.056 88.8121 266.969H65.1112L52.9722 141.048L84.6153 140.136Z" fill="#25292B"/>
<path d="M29.865 141.419L26.6801 199.725L9.71647 266.97H35.1318L60.7031 199.45L71.5685 140.752L29.865 141.419Z" fill="#25292B"/>
<path d="M59.3933 203.232L58.7172 203.094C62.5921 184.029 65.8458 164.562 68.3857 145.235L68.422 144.96L76.5036 144.263L76.5631 144.951L69.034 145.6C66.4968 164.852 63.2537 184.241 59.3933 203.232Z" fill="black"/>
<path d="M11.6688 267.037H31.863L37.1958 271.747C37.1958 271.747 52.9989 271.301 52.9989 282.857H11.6688V267.037Z" fill="#0D1D4A"/>
<path d="M13.0635 281.525H13.1362L52.011 281.379C52.163 281.378 52.2859 281.255 52.2852 281.103C52.2846 280.951 52.1616 280.829 52.0103 280.829L13.0622 280.975C12.9102 280.976 12.7872 281.099 12.7879 281.251C12.7892 281.403 12.9121 281.525 13.0635 281.525Z" fill="#25292B"/>
<path d="M23.9618 273.553C22.5481 273.402 21.6863 272.844 21.5336 271.982C21.336 270.866 22.4397 270.066 23.4449 269.719C26.5889 268.635 30.2318 269.306 32.8193 271.374C33.5456 269.01 34.8324 266.834 36.5601 265.061C37.1 264.505 37.7662 263.917 38.6188 263.753C39.4859 263.586 40.5599 264.028 40.78 264.951C40.9895 265.831 40.361 266.612 39.7893 267.193C37.8839 269.136 35.7822 270.913 33.5443 272.474C33.465 272.53 33.3652 272.537 33.2793 272.502C33.2515 272.528 33.2178 272.548 33.1795 272.561C30.9602 273.296 28.602 273.673 26.2538 273.673C25.4865 273.673 24.7212 273.633 23.9618 273.553ZM32.6878 271.978C30.2345 269.889 26.6794 269.186 23.6234 270.239C22.979 270.461 21.9282 271.057 22.0749 271.886C22.2236 272.726 23.4839 272.948 24.0193 273.005C26.9478 273.316 29.9708 273.007 32.777 272.113C32.7347 272.078 32.7036 272.031 32.6878 271.978ZM38.7219 264.293C38.0187 264.427 37.4331 264.95 36.9533 265.444C35.2316 267.212 33.9633 269.394 33.276 271.764C33.3229 271.806 33.3692 271.85 33.4154 271.894C35.5561 270.384 37.5673 268.674 39.3967 266.809C39.8686 266.328 40.3914 265.697 40.2446 265.08C40.1204 264.559 39.5355 264.268 38.9909 264.268C38.899 264.268 38.8085 264.275 38.7219 264.293Z" fill="#25292B"/>
<path d="M66.953 266.873H87.1471L92.48 271.583C92.48 271.583 108.283 271.136 108.283 282.693H66.953V266.873Z" fill="#0D1D4A"/>
<path d="M68.3475 281.359H68.3482H68.4202L107.295 281.213C107.447 281.213 107.57 281.089 107.569 280.937C107.569 280.786 107.446 280.663 107.294 280.663L68.3462 280.809C68.1942 280.81 68.0713 280.934 68.0719 281.086C68.0732 281.237 68.1962 281.359 68.3475 281.359Z" fill="#25292B"/>
<path d="M79.2469 273.387C77.8332 273.236 76.9713 272.678 76.8187 271.816C76.6211 270.7 77.7248 269.9 78.73 269.554C81.874 268.47 85.5169 269.141 88.1044 271.208C88.8307 268.844 90.1175 266.669 91.8451 264.895C92.3851 264.34 93.0513 263.751 93.9039 263.587C94.771 263.42 95.845 263.862 96.0651 264.785C96.2746 265.665 95.646 266.446 95.0744 267.028C93.1689 268.97 91.0672 270.747 88.8294 272.308C88.7501 272.364 88.6503 272.371 88.5644 272.336C88.5366 272.362 88.5029 272.382 88.4646 272.395C86.2452 273.13 83.8871 273.507 81.5389 273.507C80.7722 273.507 80.0062 273.467 79.2469 273.387ZM87.9735 271.813C85.5202 269.723 81.9652 269.02 78.9091 270.074C78.2647 270.295 77.2139 270.891 77.3606 271.72C77.5093 272.56 78.7697 272.782 79.305 272.839C82.2335 273.15 85.2565 272.842 88.0628 271.947C88.0198 271.912 87.9887 271.865 87.9735 271.813ZM94.0076 264.127C93.3044 264.262 92.7189 264.784 92.239 265.278C90.5174 267.047 89.2491 269.228 88.5617 271.598C88.6087 271.641 88.6549 271.684 88.7012 271.728C90.8419 270.218 92.853 268.508 94.6824 266.644C95.1543 266.162 95.6771 265.531 95.5304 264.914C95.4061 264.393 94.8212 264.102 94.2766 264.102C94.1848 264.102 94.0936 264.11 94.0076 264.127Z" fill="#25292B"/>
<path d="M81.3703 114.538L84.6153 140.135L81.4297 153.182L71.569 140.75L57.4255 153.182L29.8655 141.418L30.1959 130.704C22.113 132.357 14.6249 125.992 14.9487 117.75L18.3339 78.2623C18.552 72.7503 22.5988 64.5174 27.9059 63.0303L46.0776 57.6538L61.9064 60.5486L72.6661 63.8531C77.4114 65.3138 80.8746 69.3982 81.5289 74.3154L84.6748 97.8438L99.4991 101.677L100.048 114.538H81.3703Z" fill="#0D1D4A"/>
<path d="M35.1316 110.273C35.1203 110.273 35.1091 110.272 35.0972 110.272C34.9161 110.253 34.7839 110.091 34.8024 109.909L37.497 83.6971C37.5161 83.516 37.6761 83.3898 37.8598 83.4023C38.0409 83.4209 38.1731 83.5834 38.1546 83.7652L35.46 109.977C35.4429 110.147 35.2994 110.273 35.1316 110.273Z" fill="black"/>
<path d="M31.2131 130.728C31.073 130.728 30.9428 130.638 30.8979 130.497C30.843 130.322 30.9388 130.137 31.1126 130.082L63.607 119.768L59.8292 106.277L26.7387 112.104C26.5576 112.138 26.3871 112.017 26.3561 111.837C26.3243 111.657 26.444 111.486 26.6237 111.454L60.0097 105.575C60.1788 105.544 60.3395 105.647 60.3851 105.811L64.33 119.897C64.3783 120.068 64.2818 120.247 64.1119 120.3L31.3136 130.712C31.2799 130.723 31.2462 130.728 31.2131 130.728Z" fill="black"/>
<path d="M76.7771 100.596C76.6118 100.596 76.4691 100.473 76.4493 100.305L73.9993 79.6046C73.9781 79.4235 74.1077 79.2596 74.2887 79.2378C74.4692 79.2147 74.6337 79.3462 74.6556 79.5273L77.1056 100.228C77.1267 100.409 76.9972 100.573 76.8161 100.594C76.8029 100.596 76.7903 100.596 76.7771 100.596Z" fill="black"/>
<path d="M60.853 73.2824C60.7829 73.2824 60.7122 73.2599 60.6527 73.2143L54.7673 68.7108C54.1956 68.7221 51.4535 68.9554 50.8904 72.3326C50.8699 72.4549 50.7833 72.5547 50.6663 72.593C50.5494 72.6327 50.4198 72.601 50.3326 72.5137C50.2711 72.4529 44.1987 66.3461 44.7234 58.5381C44.736 58.3563 44.8926 58.2261 45.0757 58.2308C45.2575 58.2433 45.3956 58.4006 45.383 58.583C44.9594 64.8881 49.0319 70.0637 50.3762 71.5878C51.3497 67.9561 54.8585 68.0539 54.8929 68.0506C54.9609 68.0532 55.027 68.077 55.0806 68.1187L61.0539 72.6902C61.1986 72.8012 61.2264 73.0081 61.1154 73.1535C61.0512 73.2381 60.9528 73.2824 60.853 73.2824Z" fill="black"/>
<path d="M62.4466 73.2822C62.4307 73.2822 62.4148 73.2815 62.3983 73.2788C62.2179 73.2524 62.093 73.0845 62.1194 72.9041L62.8206 68.127C62.8332 68.0405 62.8801 67.9618 62.9508 67.9096C63.0215 67.8574 63.1114 67.8369 63.1967 67.8481C63.2714 67.8594 64.6051 68.0682 65.4742 68.747C65.3962 66.9533 64.9395 63.0889 62.5087 61.4684C62.3567 61.3673 62.3157 61.1617 62.4168 61.0104C62.5173 60.8584 62.7222 60.8174 62.8748 60.9185C66.3882 63.2608 66.1562 69.4581 66.145 69.7205C66.1377 69.8785 66.0208 70.0093 65.8641 70.0325C65.7095 70.0543 65.5568 69.9657 65.5039 69.8177C65.2534 69.1184 64.114 68.7225 63.4247 68.5646L62.7737 72.9993C62.7486 73.1639 62.6078 73.2822 62.4466 73.2822Z" fill="black"/>
<path d="M95.7447 102.946L86.3135 104.103L88.9307 106.145C89.889 106.892 90.0609 108.28 89.3141 109.238C88.8778 109.793 88.2302 110.084 87.5759 110.084C87.5098 110.084 87.4371 110.084 87.371 110.078C87.6089 110.758 87.5164 111.558 87.0339 112.173C86.5977 112.728 85.9434 113.019 85.2891 113.019C85.0578 113.019 84.8199 112.979 84.5951 112.906C84.8661 113.607 84.767 114.42 84.2779 115.048C83.8417 115.603 83.194 115.894 82.5331 115.894C82.0639 115.894 81.588 115.748 81.1848 115.438L79.2021 113.891L78.9377 114.288C74.3444 120.011 68.6011 117.691 68.6011 117.691L64.1003 118.993L60.7032 107.17L69.8172 105.193L77.5036 100.124C78.4355 99.5096 79.5326 99.1792 80.6495 99.1792H95.7447V102.946Z" fill="#FFAC9D"/>
<path d="M84.5954 113.236C84.522 113.236 84.448 113.212 84.3865 113.162L80.5189 109.998C80.3775 109.883 80.3563 109.675 80.472 109.533C80.5876 109.392 80.7958 109.371 80.9373 109.486L84.8049 112.649C84.9463 112.765 84.9675 112.973 84.8518 113.115C84.7864 113.195 84.6912 113.236 84.5954 113.236Z" fill="black"/>
<path d="M87.3709 110.408C87.2969 110.408 87.2215 110.383 87.1601 110.331L83.2263 107.057C83.0862 106.94 83.0671 106.732 83.184 106.592C83.3004 106.452 83.5086 106.432 83.6493 106.549L87.5831 109.824C87.7232 109.941 87.7423 110.149 87.6254 110.289C87.5599 110.367 87.4661 110.408 87.3709 110.408Z" fill="black"/>
<path d="M125.685 84.573L106.142 119.145C105.633 120.044 104.681 120.599 103.643 120.599H85.2369C83.0427 120.599 81.668 118.233 82.7452 116.323L102.288 81.7575C102.797 80.8587 103.749 80.3035 104.78 80.3035H123.193C125.387 80.3035 126.762 82.663 125.685 84.573Z" fill="black"/>
<path d="M117.338 103.554C117.027 104.163 116.459 104.552 115.831 104.658C116.108 104.936 116.307 105.273 116.426 105.636C116.617 106.238 116.584 106.912 116.274 107.513C115.804 108.439 114.813 108.934 113.835 108.835C114.086 109.1 114.264 109.417 114.377 109.754C114.569 110.362 114.535 111.036 114.225 111.637C113.808 112.45 112.996 112.933 112.136 112.966C112.249 113.131 112.341 113.303 112.414 113.481C112.672 114.116 112.678 114.803 112.368 115.411C111.746 116.614 110.101 117.017 108.706 116.303L105.605 114.821C104.904 114.464 104.402 113.889 104.144 113.255C103.886 112.62 103.886 111.926 104.19 111.325C104.567 110.585 105.34 110.148 106.199 110.096C106.047 109.884 105.928 109.646 105.849 109.402C105.651 108.8 105.69 108.126 105.995 107.525C106.47 106.599 107.462 106.097 108.44 106.196C108.189 105.932 108.004 105.615 107.898 105.277C107.7 104.676 107.733 104.002 108.043 103.4C108.526 102.449 109.55 101.953 110.555 102.079C110.502 101.98 110.462 101.88 110.429 101.775C110.264 101.266 110.29 100.691 110.555 100.182C111.077 99.1574 112.346 98.7477 113.37 99.2764L116.426 100.739C116.941 101.003 117.298 101.453 117.463 101.962C117.629 102.471 117.595 103.046 117.338 103.554Z" fill="#FFAC9D"/>
<path d="M112.135 113.296C112.087 113.296 112.038 113.286 111.992 113.263L106.055 110.393C105.89 110.314 105.821 110.116 105.901 109.951C105.981 109.788 106.178 109.719 106.343 109.798L112.28 112.668C112.444 112.748 112.513 112.945 112.433 113.11C112.376 113.228 112.258 113.296 112.135 113.296Z" fill="black"/>
<path d="M113.834 109.166C113.785 109.166 113.736 109.155 113.689 109.132L108.294 106.493C108.13 106.412 108.062 106.215 108.143 106.051C108.223 105.887 108.421 105.819 108.585 105.899L113.98 108.538C114.144 108.619 114.212 108.817 114.131 108.981C114.074 109.098 113.956 109.166 113.834 109.166Z" fill="black"/>
<path d="M115.83 104.988C115.781 104.988 115.732 104.978 115.685 104.955L110.409 102.375C110.245 102.295 110.177 102.097 110.258 101.933C110.339 101.769 110.536 101.702 110.7 101.782L115.976 104.361C116.14 104.441 116.208 104.639 116.127 104.803C116.07 104.92 115.952 104.988 115.83 104.988Z" fill="black"/>
<path d="M43.5791 42.5568C44.2975 45.4747 46.0972 47.3107 48.8062 46.973L45.766 58.1272L60.9604 71.2978L62.4362 57.3962C62.4362 57.3962 64.3403 56.9785 66.5887 55.0434C68.8371 53.1148 72.6083 48.3483 72.903 43.8522L73.4926 34.9827C69.7948 34.9583 65.0223 33.9385 61.3675 32.9927C58.1489 32.1573 55.7967 31.3834 55.7967 31.3834C55.7412 31.7952 55.6123 32.2188 55.4279 32.6425C54.4326 34.9457 51.8715 37.2431 51.8715 37.2431L51.8656 37.286C51.8596 37.2801 51.8596 37.2735 51.853 37.2735C51.8345 37.255 51.816 37.2364 51.8041 37.2179C50.9383 36.2722 49.7956 35.6331 48.5729 35.4427C47.9279 35.3443 47.2584 35.3687 46.5948 35.5287C43.702 36.2484 42.8052 39.4307 43.5791 42.5568Z" fill="#FFC4B0"/>
<path d="M72.1831 42.3899C72.2423 41.4961 71.6354 40.7282 70.8276 40.6747C70.0198 40.6212 69.3169 41.3023 69.2577 42.1961C69.1985 43.0899 69.8054 43.8578 70.6132 43.9113C71.421 43.9648 72.1239 43.2836 72.1831 42.3899Z" fill="black"/>
<path d="M62.7636 40.7622C63.0469 39.9125 62.654 39.016 61.8859 38.7599C61.1179 38.5038 60.2655 38.9851 59.9822 39.8349C59.6989 40.6847 60.0919 41.5812 60.8599 41.8373C61.628 42.0933 62.4803 41.612 62.7636 40.7622Z" fill="black"/>
<path d="M69.7545 38.4263C70.8893 38.1468 72.1272 38.4263 72.9817 39.2439C73.1516 39.4065 73.2104 39.6893 73.0392 39.8777C72.8846 40.0482 72.5871 40.109 72.4054 39.9352C72.3215 39.8546 72.2342 39.7786 72.141 39.7092C72.0954 39.6748 72.0492 39.6424 72.0022 39.6107C71.9969 39.6074 71.9917 39.6041 71.9857 39.6008C71.9606 39.5862 71.9355 39.571 71.9104 39.5572C71.8093 39.5003 71.7048 39.4494 71.5978 39.4045C71.5442 39.382 71.49 39.3615 71.4352 39.3417C71.4253 39.3384 71.416 39.3351 71.4087 39.3324C71.3783 39.3232 71.3479 39.3146 71.3175 39.3067C71.2052 39.2769 71.0915 39.2531 70.9765 39.236C70.919 39.2274 70.8615 39.2208 70.8033 39.2155C70.7743 39.2128 70.7458 39.2108 70.7168 39.2089C70.7154 39.2089 70.7161 39.2089 70.7148 39.2089C70.7115 39.2089 70.7135 39.2089 70.7069 39.2089C70.5905 39.2082 70.4749 39.2115 70.3592 39.2234C70.3017 39.2293 70.2442 39.2366 70.1867 39.2465C70.1583 39.2512 70.1299 39.2564 70.1008 39.2617C70.0929 39.2631 70.0896 39.2637 70.0863 39.2644C70.0803 39.2657 70.0777 39.2664 70.0697 39.2683C69.8424 39.3245 69.5714 39.2551 69.4901 39.006C69.4234 38.7971 69.5099 38.4865 69.7545 38.4263Z" fill="black"/>
<path d="M63.9167 37.7811C63.7469 37.9813 63.47 37.943 63.2809 37.8049C63.275 37.8002 63.2717 37.7983 63.2671 37.7949C63.2644 37.7936 63.2611 37.7916 63.2545 37.787C63.23 37.7712 63.2056 37.7553 63.1811 37.7401C63.1316 37.7097 63.0813 37.6806 63.0304 37.6535C62.928 37.5987 62.8223 37.5517 62.7145 37.5088C62.7086 37.5061 62.7106 37.5068 62.7073 37.5055C62.7059 37.5048 62.7073 37.5055 62.7053 37.5048C62.6775 37.4956 62.6504 37.4863 62.6227 37.4784C62.5672 37.4612 62.511 37.446 62.4548 37.4321C62.3418 37.4043 62.2274 37.3832 62.1124 37.3687C62.0807 37.3647 62.0497 37.3614 62.0179 37.3581C62.0107 37.3574 62.0008 37.3568 61.9902 37.3568C61.932 37.3548 61.8739 37.3528 61.8164 37.3535C61.7 37.3541 61.5844 37.362 61.4694 37.3766C61.4403 37.3799 61.4119 37.3845 61.3835 37.3885C61.3775 37.3891 61.3709 37.3905 61.365 37.3918C61.3094 37.403 61.2539 37.4156 61.1991 37.4301C61.0867 37.4599 60.977 37.4969 60.8686 37.5398C60.6346 37.6317 60.3828 37.4625 60.3042 37.2464C60.217 37.0071 60.3789 36.7679 60.5976 36.682C61.6981 36.2484 62.9498 36.4579 63.8943 37.1459C64.0965 37.2933 64.0588 37.6132 63.9167 37.7811Z" fill="black"/>
<path d="M60.5462 50.6566C59.7274 50.2904 59.1828 49.7498 58.929 49.0506C58.5014 47.8741 59.0671 46.6898 59.0916 46.6402C59.1583 46.5034 59.3216 46.4446 59.4597 46.5041L64.5533 48.7128C64.6247 48.7439 64.6796 48.8021 64.7067 48.8748C64.7331 48.9475 64.7291 49.0281 64.6954 49.0975C64.6842 49.12 63.7563 50.9725 61.913 50.9725C61.5032 50.9725 61.0472 50.8813 60.5462 50.6566ZM59.5033 47.1418C59.3824 47.502 59.2218 48.192 59.463 48.8569C59.6626 49.4061 60.1048 49.837 60.7782 50.1384C62.5845 50.9467 63.6591 49.6817 64.0345 49.1067L59.5033 47.1418Z" fill="black"/>
<path d="M48.1728 45.6178C48.1107 45.6178 48.0486 45.6012 47.9917 45.5669C46.9462 44.9304 46.3811 43.6013 46.6488 42.4071C46.8986 41.2881 47.8602 40.3734 48.9818 40.1553C49.1596 39.5308 49.1107 38.8798 48.8423 38.3801C48.5244 37.788 47.8807 37.4178 47.2813 37.4833C46.6745 37.548 46.1524 38.1184 46.1861 38.6809C46.198 38.8738 46.0513 39.0391 45.8583 39.0503C45.6653 39.0681 45.5001 38.9155 45.4889 38.7225C45.432 37.7794 46.2185 36.8937 47.2072 36.7887C48.0909 36.6922 49.0095 37.2143 49.4576 38.0497C49.8522 38.784 49.8952 39.7092 49.5753 40.5876C49.5297 40.7125 49.4167 40.8011 49.2845 40.8156C48.3559 40.9154 47.5344 41.649 47.3302 42.5597C47.126 43.4711 47.5575 44.485 48.3552 44.9701C48.5198 45.0705 48.572 45.2853 48.4722 45.4506C48.4055 45.5576 48.2905 45.6171 48.1728 45.6178Z" fill="black"/>
<path d="M60.8096 57.7808C60.532 57.7808 60.2716 57.7531 60.0396 57.6883C58.4019 57.2329 56.1746 54.6032 56.0808 54.4915C55.9565 54.3441 55.9757 54.1233 56.1231 53.9991C56.2718 53.8748 56.4919 53.8947 56.6154 54.0414C56.6373 54.0672 58.7971 56.6176 60.2273 57.0155C61.3978 57.342 63.8332 56.4246 64.6726 56.0433C64.8491 55.9646 65.0553 56.042 65.1346 56.2171C65.2146 56.3929 65.1366 56.5998 64.9614 56.6791C64.8464 56.7313 62.5134 57.7808 60.8096 57.7808Z" fill="black"/>
<path d="M60.9541 44.6303C60.2404 44.6303 59.516 44.4954 58.8141 44.2112C57.3998 43.6376 56.2934 42.5477 55.6986 41.1426C55.1038 39.7369 55.0925 38.1837 55.6655 36.7694C56.2385 35.355 57.329 34.2487 58.7341 33.6538C60.1386 33.059 61.6924 33.0471 63.1074 33.6208C66.0273 34.8045 67.4397 38.1428 66.256 41.0627C65.3571 43.282 63.2138 44.6303 60.9541 44.6303ZM60.9607 33.8977C60.2979 33.8977 59.6356 34.0312 59.0071 34.2969C57.7732 34.819 56.8168 35.7906 56.3132 37.0318C55.8096 38.2736 55.8202 39.6364 56.3416 40.8703C56.8638 42.1042 57.8353 43.0606 59.0765 43.5642C61.6382 44.6032 64.57 43.3633 65.6089 40.8009C66.6479 38.2379 65.408 35.3081 62.845 34.2692C62.237 34.0213 61.5985 33.8977 60.9607 33.8977Z" fill="#0D1D4A"/>
<path d="M73.4852 48.2062C72.7714 48.2062 72.047 48.072 71.3458 47.7878C68.4259 46.6041 67.0135 43.2652 68.1972 40.3453C68.7709 38.931 69.8607 37.8246 71.2658 37.2298C72.6703 36.6343 74.2241 36.6231 75.6391 37.1967C78.559 38.3804 79.9713 41.7187 78.7876 44.6386C77.8888 46.8579 75.7441 48.2062 73.4852 48.2062ZM73.4918 37.4736C72.8289 37.4736 72.1666 37.6072 71.5381 37.8728C70.3042 38.395 69.3479 39.3665 68.8442 40.6077C67.8053 43.1707 69.0445 46.1005 71.6082 47.1401C74.1692 48.1791 77.1017 46.9399 78.1406 44.3762C79.1796 41.8132 77.9397 38.8834 75.3767 37.8444C74.768 37.5972 74.1302 37.4736 73.4918 37.4736Z" fill="#0D1D4A"/>
<path d="M50.14 33.5037L49.7885 34.1074L55.6931 37.5455L56.0446 36.9418L50.14 33.5037Z" fill="#0D1D4A"/>
<path d="M66.0752 40.6089L65.8001 41.251L68.029 42.2062L68.3042 41.5641L66.0752 40.6089Z" fill="#0D1D4A"/>
<path d="M46.5943 35.5301C47.2578 35.3702 47.9273 35.3457 48.5724 35.4442C49.7944 35.6345 50.9371 36.2736 51.8036 37.2194L51.871 37.2438C51.871 37.2438 54.4327 34.9465 55.4274 32.6432C55.6118 32.2196 55.7406 31.7953 55.7962 31.3842C55.7962 31.3842 58.149 32.1581 61.367 32.9935C65.0218 33.9393 69.7943 34.9591 73.492 34.9835C75.8383 35.002 77.7549 34.6213 78.6762 33.5705C82.8466 28.804 79.8064 23.8901 75.2058 24.3508C70.7955 24.7989 67.8168 24.7196 63.0007 21.6787C58.1854 18.6319 53.1175 19.1422 51.6377 23.0422C51.6377 23.0422 43.683 23.2887 46.5943 35.5301Z" fill="black"/>
<path d="M68.5066 48.5311C68.4696 48.5311 68.4332 48.5252 68.3969 48.514L64.0395 47.0758C63.8564 47.015 63.7566 46.8174 63.8174 46.635C63.8782 46.4519 64.0765 46.3528 64.2582 46.4129L68.1173 47.6865L67.5522 40.4119C67.5377 40.2195 67.6811 40.0517 67.8734 40.0365C68.0677 40.0226 68.2336 40.1653 68.2488 40.3577L68.8549 48.1557C68.8641 48.2721 68.8139 48.3857 68.722 48.4578C68.6599 48.506 68.5839 48.5311 68.5066 48.5311Z" fill="black"/>
<path d="M194.892 180.836H114.981C113.187 180.836 111.727 179.377 111.727 177.582V129.222C111.727 127.428 113.187 125.968 114.981 125.968H194.892C196.687 125.968 198.147 127.428 198.147 129.222V177.582C198.146 179.377 196.686 180.836 194.892 180.836ZM114.981 126.456C113.456 126.456 112.214 127.697 112.214 129.223V177.583C112.214 179.108 113.455 180.349 114.981 180.349H194.892C196.418 180.349 197.659 179.108 197.659 177.583V129.223C197.659 127.697 196.418 126.456 194.892 126.456H114.981Z" fill="#25292B"/>
<path d="M197.902 132.455H111.97V129.222C111.97 127.559 113.318 126.212 114.981 126.212H194.892C196.554 126.212 197.902 127.559 197.902 129.222V132.455Z" fill="#25292B"/>
<path d="M117.422 147.06L130.011 147.06L130.011 134.471L117.422 134.471L117.422 147.06Z" fill="#F4F6FC"/>
<path d="M117.422 162.26L130.011 162.26L130.011 149.671L117.422 149.671L117.422 162.26Z" fill="#F4F6FC"/>
<path d="M117.421 177.02L130.01 177.02L130.01 164.431L117.421 164.431L117.421 177.02Z" fill="#F4F6FC"/>
<path d="M122.498 144.905L117.998 140.404L120.29 138.112L122.498 140.321L127.144 135.675L129.437 137.967L122.498 144.905Z" fill="#0D1D4A"/>
<path d="M122.498 160.581L117.998 156.08L120.29 153.789L122.498 155.997L127.144 151.352L129.436 153.643L122.498 160.581Z" fill="#0D1D4A"/>
<path d="M122.498 174.933L117.998 170.432L120.29 168.141L122.498 170.349L127.144 165.703L129.437 167.995L122.498 174.933Z" fill="#0D1D4A"/>
<path d="M132.12 137.757L192.529 137.757L192.529 135.269L132.12 135.269L132.12 137.757Z" fill="#F4F6FC"/>
<path d="M132.12 142.476L192.529 142.476L192.529 139.988L132.12 139.988L132.12 142.476Z" fill="#F4F6FC"/>
<path d="M132.121 147.106L159.301 147.106L159.301 144.618L132.121 144.618L132.121 147.106Z" fill="#F4F6FC"/>
<path d="M132.119 152.536L192.528 152.536L192.528 150.048L132.119 150.048L132.119 152.536Z" fill="#F4F6FC"/>
<path d="M132.119 157.256L192.529 157.256L192.529 154.767L132.119 154.767L132.119 157.256Z" fill="#F4F6FC"/>
<path d="M132.121 161.886L159.301 161.886L159.301 159.397L132.121 159.397L132.121 161.886Z" fill="#F4F6FC"/>
<path d="M132.121 167.575L192.53 167.575L192.53 165.086L132.121 165.086L132.121 167.575Z" fill="#F4F6FC"/>
<path d="M132.121 172.294L192.53 172.294L192.53 169.806L132.121 169.806L132.121 172.294Z" fill="#F4F6FC"/>
<path d="M132.121 176.924L159.301 176.924L159.301 174.435L132.121 174.435L132.121 176.924Z" fill="#F4F6FC"/>
<path d="M287.19 149.037L282.411 163.337C275.869 182.894 254.251 188.172 239.433 173.83L228.602 163.342C210.521 145.838 215.965 113.493 237.897 108.138L253.508 104.327C275.432 98.9735 295.17 125.171 287.19 149.037Z" fill="#F4F6FC"/>
<path d="M249.061 121.27C260.45 118.489 268.799 112.613 267.708 108.144C266.617 103.676 256.5 102.308 245.11 105.089C233.721 107.87 225.373 113.746 226.464 118.215C227.555 122.683 237.672 124.051 249.061 121.27Z" fill="#25292B"/>
<path d="M277.696 91.8034C277.696 107.682 262.116 112.923 242.897 112.923C223.677 112.923 208.097 107.682 208.097 91.8034C208.097 75.925 223.677 61.0256 242.897 61.0256C262.116 61.0264 277.696 75.9257 277.696 91.8034Z" fill="#F4F6FC"/>
<path d="M228.011 101.186C228.011 101.186 212.55 100.997 208.117 92.6722C208.104 92.3884 208.097 92.0981 208.097 91.8004C208.097 83.9014 211.962 76.2379 218.213 70.5347H257.129C257.129 70.5347 270.839 101.186 228.011 101.186Z" fill="#0D1D4A"/>
<path d="M218.2 87.6298C221.047 87.6298 223.355 85.0071 223.355 81.7719C223.355 78.5366 221.047 75.9139 218.2 75.9139C215.352 75.9139 213.044 78.5366 213.044 81.7719C213.044 85.0071 215.352 87.6298 218.2 87.6298Z" fill="#F4F6FC"/>
<path d="M236.253 87.6298C239.1 87.6298 241.409 85.0071 241.409 81.7719C241.409 78.5366 239.1 75.9139 236.253 75.9139C233.406 75.9139 231.098 78.5366 231.098 81.7719C231.098 85.0071 233.406 87.6298 236.253 87.6298Z" fill="#F4F6FC"/>
<path d="M225.447 93.6284C220.65 93.6284 220.572 89.3031 220.571 89.2594C220.57 89.128 220.676 89.0215 220.806 89.0208H220.808C220.938 89.0208 221.044 89.1259 221.045 89.2557C221.047 89.4147 221.127 93.1534 225.446 93.1534C229.765 93.1534 229.846 89.4147 229.847 89.2557C229.848 89.1259 229.954 89.0208 230.084 89.0208H230.086C230.216 89.0215 230.322 89.128 230.321 89.2594C230.321 89.3031 230.243 93.6284 225.447 93.6284Z" fill="#F4F6FC"/>
<path d="M265.703 108.015C265.665 108.015 265.627 108.006 265.591 107.987C265.476 107.925 265.433 107.781 265.495 107.666C268.87 101.395 270.3 94.0423 269.521 86.9632C268.741 79.8833 265.744 73.0194 261.083 67.6335C260.998 67.5343 261.008 67.3848 261.107 67.2987C261.206 67.2126 261.355 67.2228 261.442 67.3227C266.165 72.7802 269.201 79.7367 269.992 86.9106C270.782 94.0846 269.333 101.536 265.912 107.89C265.87 107.97 265.789 108.015 265.703 108.015Z" fill="#25292B"/>
<path d="M244.114 64.7284C244.07 64.7284 244.024 64.7153 243.983 64.689C243.874 64.6168 243.844 64.4701 243.916 64.36C247.518 58.8967 248.498 51.9066 246.54 45.6635C246.5 45.5388 246.57 45.4053 246.695 45.3666C246.819 45.3287 246.953 45.3973 246.992 45.522C248.994 51.9001 247.992 59.0405 244.312 64.6219C244.267 64.6905 244.191 64.7284 244.114 64.7284Z" fill="#25292B"/>
<path d="M246.747 50.7484C250.404 50.7484 253.368 47.7837 253.368 44.1267C253.368 40.4696 250.404 37.5049 246.747 37.5049C243.09 37.5049 240.125 40.4696 240.125 44.1267C240.125 47.7837 243.09 50.7484 246.747 50.7484Z" fill="#0D1D4A"/>
<path d="M272.091 145.364C277.659 145.364 282.172 139.645 282.172 132.59C282.172 125.535 277.659 119.816 272.091 119.816C266.523 119.816 262.01 125.535 262.01 132.59C262.01 139.645 266.523 145.364 272.091 145.364Z" fill="#0D1D4A"/>
<path d="M237.725 152.125C229.067 152.125 220.414 150.111 212.668 146.217C209.664 144.708 208.453 141.048 209.963 138.045C211.472 135.042 215.131 133.83 218.135 135.341C226.313 139.451 235.788 140.88 244.813 139.365C253.84 137.849 262.329 133.405 268.715 126.849C271.06 124.441 274.913 124.391 277.322 126.738C279.73 129.083 279.78 132.937 277.435 135.345C269.257 143.739 258.387 149.43 246.829 151.371C243.82 151.876 240.773 152.125 237.725 152.125Z" fill="#25292B"/>
<path d="M150.014 107.431C151.431 107.203 152.905 107.186 154.398 107.409C158.179 107.975 161.515 109.979 163.79 113.053C166.064 116.127 167.006 119.903 166.44 123.685L166.345 124.322C166.083 126.071 164.454 127.278 162.705 127.015C160.956 126.754 159.751 125.125 160.012 123.376L160.107 122.738C160.42 120.648 159.899 118.561 158.642 116.862C157.386 115.163 155.542 114.055 153.451 113.743C149.136 113.098 145.101 116.084 144.456 120.399L144.36 121.037C144.098 122.786 142.469 123.99 140.72 123.73C138.971 123.468 137.766 121.838 138.027 120.09L138.123 119.452C139.066 113.137 144.023 108.396 150.014 107.431Z" fill="#0D1D4A"/>
<path d="M215.254 134.78C215.208 136.109 214.959 137.451 214.488 138.769C213.297 142.105 210.877 144.776 207.676 146.293C204.475 147.809 200.875 147.987 197.539 146.795L196.977 146.595C195.434 146.044 194.629 144.347 195.181 142.804C195.732 141.262 197.43 140.458 198.972 141.009L199.534 141.21C201.378 141.868 203.368 141.769 205.137 140.932C206.906 140.093 208.244 138.617 208.902 136.773C210.262 132.967 208.272 128.765 204.466 127.405L203.904 127.204C202.362 126.652 201.559 124.956 202.109 123.413C202.661 121.87 204.358 121.067 205.901 121.618L206.463 121.819C212.031 123.809 215.451 129.163 215.254 134.78Z" fill="#0D1D4A"/>
<path d="M154.99 199.332H116.958V237.364H154.99V199.332Z" fill="#0D1D4A"/>
<path d="M238.767 194.262H111.97V188.059C111.97 186.397 113.318 185.049 114.981 185.049H235.758C237.42 185.049 238.768 186.397 238.768 188.059L238.767 194.262Z" fill="#0D1D4A"/>
<path d="M235.756 265.65H114.98C113.122 265.65 111.61 264.139 111.61 262.28V188.06C111.61 186.201 113.122 184.689 114.98 184.689H235.757C237.615 184.689 239.128 186.201 239.128 188.06V262.281C239.127 264.139 237.615 265.65 235.756 265.65ZM114.98 185.408C113.519 185.408 112.33 186.598 112.33 188.06V262.281C112.33 263.742 113.519 264.932 114.98 264.932H235.757C237.218 264.932 238.408 263.742 238.408 262.281V188.06C238.408 186.598 237.219 185.408 235.757 185.408H114.98Z" fill="#25292B"/>
<path d="M234.14 189.619C234.14 190.029 233.975 190.406 233.704 190.677C233.433 190.948 233.057 191.113 232.647 191.113H225.39C224.57 191.113 223.896 190.445 223.896 189.619C223.896 189.209 224.068 188.833 224.333 188.562C224.61 188.291 224.98 188.125 225.39 188.125H232.647C233.473 188.125 234.14 188.793 234.14 189.619Z" fill="#F4F6FC"/>
<path d="M222.07 189.619C222.07 190.029 221.905 190.406 221.627 190.677C221.363 190.948 220.986 191.113 220.577 191.113H213.32C212.494 191.113 211.826 190.445 211.826 189.619C211.826 189.21 211.991 188.833 212.262 188.562C212.533 188.291 212.903 188.126 213.32 188.126H220.577C221.396 188.126 222.07 188.793 222.07 189.619Z" fill="#25292B"/>
<path d="M209.798 189.619C209.798 190.029 209.633 190.406 209.355 190.677C209.091 190.948 208.714 191.113 208.304 191.113H201.047C200.221 191.113 199.554 190.445 199.554 189.619C199.554 189.21 199.719 188.833 199.99 188.562C200.261 188.291 200.631 188.126 201.047 188.126H208.304C209.124 188.126 209.798 188.793 209.798 189.619Z" fill="#0D1D4A"/>
<path d="M131.369 232.456L118.837 219.924L124.825 213.936L131.369 220.48L147.608 204.24L153.596 210.229L131.369 232.456Z" fill="#F4F6FC"/>
<path d="M232.056 244.757H117.815C117.343 244.757 116.958 244.371 116.958 243.899V243.417C116.958 242.945 117.344 242.56 117.815 242.56H232.056C232.528 242.56 232.914 242.946 232.914 243.417V243.899C232.914 244.371 232.528 244.757 232.056 244.757Z" fill="#F4F6FC"/>
<path d="M232.18 252.526H117.939C117.467 252.526 117.082 252.14 117.082 251.668V251.186C117.082 250.714 117.468 250.329 117.939 250.329H232.18C232.652 250.329 233.038 250.715 233.038 251.186V251.668C233.038 252.14 232.652 252.526 232.18 252.526Z" fill="#F4F6FC"/>
<path d="M197.579 259.823H117.878C117.406 259.823 117.021 259.437 117.021 258.966V258.483C117.021 258.011 117.407 257.626 117.878 257.626H197.579C198.051 257.626 198.436 258.012 198.436 258.483V258.966C198.436 259.437 198.05 259.823 197.579 259.823Z" fill="#F4F6FC"/>
<path d="M207.31 229.62C203.393 229.62 200.206 226.434 200.206 222.517V207.337C200.206 204.17 197.629 201.592 194.461 201.592C191.293 201.592 188.716 204.17 188.716 207.337V219.763C188.716 223.211 185.91 226.017 182.461 226.017H182.24C178.791 226.017 175.986 223.211 175.986 219.763V206.02C175.986 203.157 173.657 200.828 170.794 200.828C167.932 200.828 165.604 203.157 165.604 206.02V231.755C165.604 232.049 165.366 232.287 165.072 232.287C164.778 232.287 164.541 232.049 164.541 231.755V206.02C164.541 202.571 167.346 199.765 170.794 199.765C174.243 199.765 177.049 202.571 177.049 206.02V219.763C177.049 222.626 179.378 224.954 182.24 224.954H182.461C185.325 224.954 187.653 222.625 187.653 219.763V207.337C187.653 203.583 190.706 200.53 194.46 200.53C198.214 200.53 201.268 203.584 201.268 207.337V222.517C201.268 225.848 203.977 228.558 207.308 228.558C210.639 228.558 213.348 225.848 213.348 222.517V218.864C213.348 215.056 216.447 211.958 220.255 211.958C224.063 211.958 227.162 215.056 227.162 218.864V233.798C227.162 234.091 226.924 234.329 226.63 234.329C226.336 234.329 226.099 234.091 226.099 233.798V218.864C226.099 215.642 223.478 213.021 220.255 213.021C217.032 213.021 214.411 215.642 214.411 218.864V222.517C214.413 226.433 211.226 229.62 207.31 229.62Z" fill="#F4F6FC"/>
<path d="M170.336 203.463C172.135 203.463 173.593 202.005 173.593 200.206C173.593 198.407 172.135 196.948 170.336 196.948C168.537 196.948 167.078 198.407 167.078 200.206C167.078 202.005 168.537 203.463 170.336 203.463Z" fill="#0D1D4A"/>
<path d="M187.888 216.5C189.687 216.5 191.146 215.041 191.146 213.242C191.146 211.443 189.687 209.985 187.888 209.985C186.089 209.985 184.631 211.443 184.631 213.242C184.631 215.041 186.089 216.5 187.888 216.5Z" fill="#0D1D4A"/>
<path d="M201.27 209.535C203.069 209.535 204.528 208.077 204.528 206.278C204.528 204.479 203.069 203.02 201.27 203.02C199.471 203.02 198.013 204.479 198.013 206.278C198.013 208.077 199.471 209.535 201.27 209.535Z" fill="#0D1D4A"/>
<path d="M206.989 231.932C208.788 231.932 210.247 230.473 210.247 228.674C210.247 226.875 208.788 225.417 206.989 225.417C205.19 225.417 203.731 226.875 203.731 228.674C203.731 230.473 205.19 231.932 206.989 231.932Z" fill="#0D1D4A"/>
<path d="M226.631 236.028C228.431 236.028 229.889 234.569 229.889 232.77C229.889 230.971 228.431 229.513 226.631 229.513C224.832 229.513 223.374 230.971 223.374 232.77C223.374 234.569 224.832 236.028 226.631 236.028Z" fill="#0D1D4A"/>
<path d="M165.047 235.229C166.846 235.229 168.304 233.77 168.304 231.971C168.304 230.172 166.846 228.713 165.047 228.713C163.248 228.713 161.789 230.172 161.789 231.971C161.789 233.77 163.248 235.229 165.047 235.229Z" fill="#0D1D4A"/>
<path d="M120.562 78.6867C120.372 78.6867 120.219 78.5386 120.219 78.3562V74.3907C120.219 74.2083 120.372 74.0603 120.562 74.0603C120.752 74.0603 120.905 74.2083 120.905 74.3907V78.3562C120.905 78.5386 120.752 78.6867 120.562 78.6867ZM188.646 74.7846C188.462 74.7846 188.31 74.6445 188.303 74.4654C188.296 74.283 188.445 74.1303 188.634 74.1237C189.976 74.0788 191.26 73.7616 192.45 73.1813C192.62 73.0967 192.826 73.1641 192.912 73.3267C192.998 73.4899 192.93 73.6882 192.761 73.7708C191.48 74.3954 190.1 74.7364 188.658 74.7846C188.654 74.7846 188.649 74.7846 188.646 74.7846ZM184.581 74.3081C184.545 74.3081 184.508 74.3028 184.471 74.2909C183.132 73.8541 181.878 73.1251 180.848 72.182C180.71 72.0564 180.705 71.8475 180.835 71.7147C180.965 71.5825 181.183 71.5766 181.321 71.7028C182.28 72.5798 183.446 73.2586 184.692 73.6644C184.872 73.7232 184.968 73.9109 184.907 74.0834C184.858 74.2215 184.725 74.3081 184.581 74.3081ZM195.769 71.3168C195.694 71.3168 195.62 71.2937 195.556 71.2455C195.408 71.1318 195.383 70.9243 195.5 70.7808C196.334 69.769 196.914 68.6217 197.226 67.3725C197.27 67.1947 197.455 67.0837 197.64 67.128C197.825 67.1703 197.938 67.3487 197.894 67.5265C197.559 68.8702 196.935 70.1027 196.039 71.1906C195.971 71.2739 195.871 71.3168 195.769 71.3168ZM120.562 70.7557C120.372 70.7557 120.219 70.6077 120.219 70.4253V66.4598C120.219 66.2774 120.372 66.1294 120.562 66.1294C120.752 66.1294 120.905 66.2774 120.905 66.4598V70.4253C120.905 70.6077 120.752 70.7557 120.562 70.7557ZM178.792 69.0155C178.656 69.0155 178.527 68.9369 178.473 68.8074C178.013 67.6931 177.779 66.5147 177.779 65.3052V64.8016C177.779 64.6192 177.933 64.4711 178.123 64.4711C178.312 64.4711 178.466 64.6192 178.466 64.8016V65.3052C178.466 66.4307 178.683 67.5272 179.112 68.5635C179.182 68.7327 179.096 68.925 178.919 68.9924C178.877 69.0083 178.834 69.0155 178.792 69.0155ZM149.419 68.3361H149.099C148.093 68.3361 147.099 68.1907 146.148 67.9032C145.966 67.8484 145.866 67.6633 145.923 67.4895C145.979 67.315 146.17 67.2166 146.352 67.2727C147.238 67.5397 148.162 67.6752 149.099 67.6752H149.419C149.713 67.6752 150.004 67.662 150.291 67.6356C150.479 67.6197 150.648 67.7526 150.665 67.9343C150.682 68.1161 150.543 68.2773 150.355 68.2938C150.047 68.3223 149.735 68.3361 149.419 68.3361ZM154.214 67.0903C154.096 67.0903 153.981 67.0322 153.917 66.9264C153.822 66.7691 153.877 66.5669 154.04 66.4744C155.179 65.8339 156.181 64.945 156.937 63.9034C157.046 63.7534 157.26 63.717 157.415 63.8221C157.571 63.9265 157.608 64.1327 157.5 64.2821C156.687 65.401 155.611 66.356 154.387 67.0447C154.333 67.0758 154.273 67.0903 154.214 67.0903ZM142.705 65.9602C142.623 65.9602 142.54 65.9317 142.475 65.8742C141.422 64.9549 140.574 63.8062 140.022 62.5518C139.947 62.384 140.029 62.1897 140.204 62.1183C140.378 62.0476 140.579 62.1256 140.654 62.2934C141.168 63.4606 141.957 64.5293 142.936 65.3845C143.077 65.5074 143.087 65.7163 142.959 65.8511C142.892 65.9231 142.799 65.9602 142.705 65.9602ZM197.823 63.836C197.633 63.836 197.479 63.688 197.479 63.5055V59.5401C197.479 59.3577 197.633 59.2096 197.823 59.2096C198.012 59.2096 198.166 59.3577 198.166 59.5401V63.5055C198.166 63.688 198.012 63.836 197.823 63.836ZM120.562 62.8248C120.372 62.8248 120.219 62.6768 120.219 62.4943V58.5289C120.219 58.3465 120.372 58.1984 120.562 58.1984C120.752 58.1984 120.905 58.3465 120.905 58.5289V62.4943C120.905 62.6768 120.752 62.8248 120.562 62.8248ZM178.123 61.1666C177.933 61.1666 177.779 61.0185 177.779 60.8361V56.8707C177.779 56.6882 177.933 56.5402 178.123 56.5402C178.312 56.5402 178.466 56.6882 178.466 56.8707V60.8361C178.466 61.0192 178.312 61.1666 178.123 61.1666ZM158.785 60.7899C158.766 60.7899 158.746 60.7885 158.725 60.7846C158.538 60.7528 158.414 60.581 158.447 60.4012C158.541 59.8917 158.588 59.3702 158.588 58.8507V56.5025C158.588 56.3201 158.741 56.1721 158.931 56.1721C159.121 56.1721 159.274 56.3201 159.274 56.5025V58.8501C159.274 59.4086 159.224 59.969 159.123 60.5162C159.094 60.6775 158.949 60.7899 158.785 60.7899ZM139.587 58.8858C139.397 58.8858 139.243 58.7377 139.243 58.5553V54.5898C139.243 54.4074 139.397 54.2594 139.587 54.2594C139.776 54.2594 139.93 54.4074 139.93 54.5898V58.5553C139.93 58.7377 139.776 58.8858 139.587 58.8858ZM197.823 55.9051C197.633 55.9051 197.479 55.757 197.479 55.5746V51.6091C197.479 51.4267 197.633 51.2787 197.823 51.2787C198.012 51.2787 198.166 51.4267 198.166 51.6091V55.5746C198.166 55.757 198.012 55.9051 197.823 55.9051ZM120.562 54.8939C120.372 54.8939 120.219 54.7458 120.219 54.5634V50.5979C120.219 50.4155 120.372 50.2675 120.562 50.2675C120.752 50.2675 120.905 50.4155 120.905 50.5979V54.5634C120.905 54.7458 120.752 54.8939 120.562 54.8939ZM178.123 53.2356C177.933 53.2356 177.779 53.0876 177.779 52.9052V48.9397C177.779 48.7573 177.933 48.6093 178.123 48.6093C178.312 48.6093 178.466 48.7573 178.466 48.9397V52.9052C178.466 53.0883 178.312 53.2356 178.123 53.2356ZM158.931 52.8682C158.741 52.8682 158.588 52.7201 158.588 52.5377V48.5723C158.588 48.3898 158.741 48.2418 158.931 48.2418C159.121 48.2418 159.274 48.3898 159.274 48.5723V52.5377C159.274 52.7201 159.121 52.8682 158.931 52.8682ZM139.587 50.9548C139.397 50.9548 139.243 50.8068 139.243 50.6244V46.6589C139.243 46.4765 139.397 46.3285 139.587 46.3285C139.776 46.3285 139.93 46.4765 139.93 46.6589V50.6244C139.93 50.8068 139.776 50.9548 139.587 50.9548ZM197.823 47.9741C197.633 47.9741 197.479 47.8261 197.479 47.6437V43.6782C197.479 43.4958 197.633 43.3478 197.823 43.3478C198.012 43.3478 198.166 43.4958 198.166 43.6782V47.6437C198.166 47.8261 198.012 47.9741 197.823 47.9741ZM120.562 46.9629C120.372 46.9629 120.219 46.8149 120.219 46.6325V42.667C120.219 42.4846 120.372 42.3366 120.562 42.3366C120.752 42.3366 120.905 42.4846 120.905 42.667V46.6325C120.905 46.8149 120.752 46.9629 120.562 46.9629ZM178.123 45.3047C177.933 45.3047 177.779 45.1567 177.779 44.9743V41.412C177.779 41.2818 177.777 41.1522 177.77 41.0233C177.762 40.8409 177.909 40.6869 178.099 40.679C178.289 40.6744 178.448 40.8125 178.456 40.9949C178.463 41.133 178.466 41.2725 178.466 41.412V44.9743C178.466 45.1573 178.312 45.3047 178.123 45.3047ZM158.931 44.9372C158.741 44.9372 158.588 44.7892 158.588 44.6068V41.4126C158.588 41.1443 158.599 40.8779 158.622 40.6149C158.637 40.4331 158.805 40.2977 158.993 40.3135C159.182 40.3287 159.322 40.4887 159.306 40.6704C159.285 40.9149 159.274 41.1628 159.274 41.4126V44.6068C159.274 44.7892 159.121 44.9372 158.931 44.9372ZM139.587 43.0239C139.397 43.0239 139.243 42.8759 139.243 42.6935V38.728C139.243 38.5456 139.397 38.3975 139.587 38.3975C139.776 38.3975 139.93 38.5456 139.93 38.728V42.6935C139.93 42.8759 139.776 43.0239 139.587 43.0239ZM197.823 40.0432C197.633 40.0432 197.479 39.8952 197.479 39.7127V35.7473C197.479 35.5649 197.633 35.4168 197.823 35.4168C198.012 35.4168 198.166 35.5649 198.166 35.7473V39.7127C198.166 39.8952 198.012 40.0432 197.823 40.0432ZM120.562 39.032C120.372 39.032 120.219 38.884 120.219 38.7016V34.7361C120.219 34.5537 120.372 34.4056 120.562 34.4056C120.752 34.4056 120.905 34.5537 120.905 34.7361V38.7016C120.905 38.884 120.752 39.032 120.562 39.032ZM238.762 38.9428C238.648 38.9428 238.537 38.8886 238.472 38.7895C237.779 37.7373 236.659 36.9872 235.398 36.732C235.212 36.6944 235.094 36.5192 235.133 36.3408C235.172 36.1623 235.354 36.0487 235.539 36.0857C236.98 36.3771 238.26 37.2337 239.051 38.4359C239.153 38.5899 239.105 38.7941 238.945 38.8919C238.888 38.9263 238.825 38.9428 238.762 38.9428ZM177.062 37.539C176.938 37.539 176.819 37.4736 176.758 37.3606C176.152 36.2344 175.281 35.2265 174.238 34.4453C174.088 34.3336 174.062 34.1254 174.178 33.9813C174.294 33.8372 174.511 33.8102 174.66 33.9238C175.781 34.7638 176.717 35.8471 177.367 37.0565C177.455 37.2191 177.389 37.4181 177.22 37.502C177.17 37.5271 177.115 37.539 177.062 37.539ZM160.174 37.2152C160.116 37.2152 160.058 37.2013 160.004 37.1722C159.84 37.0817 159.782 36.8801 159.876 36.7215C160.578 35.5371 161.558 34.4902 162.712 33.6952C162.867 33.5881 163.081 33.6231 163.191 33.7712C163.301 33.9192 163.266 34.1261 163.112 34.2318C162.038 34.972 161.125 35.9462 160.473 37.0486C160.409 37.1557 160.293 37.2152 160.174 37.2152ZM231.356 36.6322H227.236C227.047 36.6322 226.893 36.4842 226.893 36.3018C226.893 36.1194 227.047 35.9713 227.236 35.9713H231.356C231.546 35.9713 231.7 36.1194 231.7 36.3018C231.7 36.4842 231.547 36.6322 231.356 36.6322ZM223.233 35.8543C223.185 35.8543 223.137 35.8451 223.091 35.8253C221.799 35.2609 220.633 34.4056 219.722 33.3515C219.601 33.2114 219.62 33.0032 219.766 32.8862C219.911 32.7692 220.128 32.789 220.249 32.9285C221.095 33.906 222.176 34.6997 223.375 35.2225C223.547 35.2979 223.624 35.4942 223.546 35.66C223.488 35.7823 223.363 35.8543 223.233 35.8543ZM139.587 35.093C139.397 35.093 139.243 34.9449 139.243 34.7625V33.2735C139.243 32.4725 139.132 31.6794 138.913 30.916C138.862 30.7402 138.97 30.5578 139.152 30.5096C139.333 30.4633 139.524 30.5644 139.575 30.7402C139.81 31.5604 139.93 32.413 139.93 33.2735V34.7625C139.93 34.9449 139.776 35.093 139.587 35.093ZM170.76 32.8221C170.734 32.8221 170.708 32.8194 170.682 32.8135C170.008 32.6635 169.311 32.5875 168.61 32.5875H168.444C167.869 32.5875 167.293 32.639 166.733 32.7408C166.549 32.7745 166.368 32.6569 166.332 32.4778C166.297 32.2986 166.419 32.1255 166.605 32.0918C167.207 31.9821 167.825 31.9266 168.443 31.9266H168.61C169.362 31.9266 170.111 32.0085 170.836 32.1698C171.021 32.2114 171.136 32.3885 171.093 32.5663C171.057 32.719 170.916 32.8221 170.76 32.8221ZM197.823 32.1123C197.633 32.1123 197.479 31.9642 197.479 31.7818V27.8164C197.479 27.6339 197.633 27.4859 197.823 27.4859C198.012 27.4859 198.166 27.6339 198.166 27.8164V31.7818C198.166 31.9642 198.012 32.1123 197.823 32.1123ZM120.913 31.1321C120.882 31.1321 120.851 31.1282 120.82 31.1196C120.638 31.0707 120.531 30.8883 120.582 30.7125C120.969 29.382 121.639 28.1726 122.576 27.1171C122.7 26.9783 122.917 26.9625 123.06 27.0801C123.205 27.1991 123.222 27.4072 123.099 27.546C122.227 28.5282 121.603 29.653 121.243 30.8909C121.201 31.037 121.063 31.1321 120.913 31.1321ZM218.143 29.9617C217.988 29.9617 217.848 29.8605 217.81 29.7099C217.629 29.002 217.538 28.2697 217.538 27.5341C217.538 26.9393 217.473 26.3458 217.345 25.7702C217.306 25.5917 217.424 25.4159 217.61 25.3783C217.794 25.3406 217.977 25.4543 218.017 25.6327C218.154 26.2533 218.224 26.8937 218.224 27.5341C218.224 28.2169 218.309 28.8963 218.476 29.5526C218.521 29.7297 218.408 29.9088 218.224 29.9518C218.197 29.959 218.169 29.9617 218.143 29.9617ZM137.329 27.6828C137.231 27.6828 137.135 27.6432 137.067 27.5665C136.212 26.5963 135.128 25.8012 133.934 25.2672C133.762 25.1899 133.687 24.9936 133.767 24.8277C133.847 24.6625 134.051 24.5898 134.224 24.6671C135.507 25.2414 136.671 26.096 137.591 27.1383C137.714 27.2771 137.696 27.4859 137.551 27.6042C137.486 27.6571 137.408 27.6828 137.329 27.6828ZM126.095 25.2864C125.965 25.2864 125.841 25.2157 125.782 25.0941C125.703 24.9282 125.778 24.7319 125.951 24.6552C127.248 24.0796 128.635 23.7874 130.074 23.7874C130.264 23.7874 130.424 23.9355 130.424 24.1179C130.424 24.3003 130.277 24.4484 130.087 24.4484C128.735 24.4484 127.444 24.72 126.238 25.2553C126.192 25.2771 126.143 25.2864 126.095 25.2864ZM198.612 24.2891C198.565 24.2891 198.518 24.2798 198.472 24.2607C198.299 24.186 198.221 23.9903 198.299 23.8238C198.878 22.5767 199.761 21.4511 200.852 20.5681C200.997 20.4512 201.212 20.469 201.336 20.6085C201.458 20.7479 201.439 20.9568 201.294 21.0744C200.282 21.8933 199.463 22.9375 198.926 24.0941C198.869 24.2164 198.743 24.2891 198.612 24.2891ZM215.953 22.4702C215.85 22.4702 215.749 22.4266 215.681 22.3433C214.868 21.3414 213.813 20.5159 212.631 19.9568C212.461 19.8762 212.391 19.6786 212.474 19.5146C212.558 19.3507 212.762 19.2827 212.934 19.364C214.208 19.9667 215.346 20.8563 216.223 21.9362C216.339 22.0803 216.313 22.2878 216.164 22.4002C216.101 22.4471 216.027 22.4702 215.953 22.4702ZM204.708 19.36C204.555 19.36 204.415 19.2602 204.376 19.1102C204.33 18.933 204.441 18.7539 204.625 18.7097C205.374 18.5286 206.15 18.4367 206.929 18.4367C206.93 18.4367 206.931 18.4367 206.933 18.4367H208.77C208.96 18.4367 209.132 18.5848 209.132 18.7672C209.132 18.9496 208.996 19.0976 208.805 19.0976H206.932C206.931 19.0976 206.929 19.0976 206.928 19.0976C206.205 19.0976 205.486 19.1829 204.791 19.3507C204.764 19.3567 204.736 19.36 204.708 19.36Z" fill="#25292B"/>
</svg>
